<?xml version="1.0" standalone="no"?>
<svg xmlns:xlink="http://www.w3.org/1999/xlink" id="wave" style="transform:rotate(180deg); transition: 0.3s" viewBox="0 0 1440 240" version="1.1" xmlns="http://www.w3.org/2000/svg"><defs><linearGradient id="sw-gradient-0" x1="0" x2="0" y1="1" y2="0"><stop stop-color="rgba(36.801, 121.956, 255, 0.82)" offset="0%"/><stop stop-color="rgba(12.777, 0, 255, 1)" offset="100%"/></linearGradient></defs><path style="transform:translate(0, 0px); opacity:1" fill="url(#sw-gradient-0)" d="M0,120L48,120C96,120,192,120,288,132C384,144,480,168,576,160C672,152,768,112,864,96C960,80,1056,88,1152,108C1248,128,1344,160,1440,144C1536,128,1632,64,1728,60C1824,56,1920,112,2016,128C2112,144,2208,120,2304,116C2400,112,2496,128,2592,116C2688,104,2784,64,2880,76C2976,88,3072,152,3168,148C3264,144,3360,72,3456,56C3552,40,3648,80,3744,80C3840,80,3936,40,4032,56C4128,72,4224,144,4320,176C4416,208,4512,200,4608,164C4704,128,4800,64,4896,56C4992,48,5088,96,5184,124C5280,152,5376,160,5472,152C5568,144,5664,120,5760,124C5856,128,5952,160,6048,160C6144,160,6240,128,6336,116C6432,104,6528,112,6624,112C6720,112,6816,104,6864,100L6912,96L6912,240L6864,240C6816,240,6720,240,6624,240C6528,240,6432,240,6336,240C6240,240,6144,240,6048,240C5952,240,5856,240,5760,240C5664,240,5568,240,5472,240C5376,240,5280,240,5184,240C5088,240,4992,240,4896,240C4800,240,4704,240,4608,240C4512,240,4416,240,4320,240C4224,240,4128,240,4032,240C3936,240,3840,240,3744,240C3648,240,3552,240,3456,240C3360,240,3264,240,3168,240C3072,240,2976,240,2880,240C2784,240,2688,240,2592,240C2496,240,2400,240,2304,240C2208,240,2112,240,2016,240C1920,240,1824,240,1728,240C1632,240,1536,240,1440,240C1344,240,1248,240,1152,240C1056,240,960,240,864,240C768,240,672,240,576,240C480,240,384,240,288,240C192,240,96,240,48,240L0,240Z"/></svg>