<?xml version="1.0" standalone="no"?>
<svg xmlns:xlink="http://www.w3.org/1999/xlink" id="wave" style="transform:rotate(180deg); transition: 0.3s" viewBox="0 0 1440 220" version="1.1" xmlns="http://www.w3.org/2000/svg"><defs><linearGradient id="sw-gradient-0" x1="0" x2="0" y1="1" y2="0"><stop stop-color="rgba(36.801, 121.956, 255, 0.82)" offset="0%"/><stop stop-color="rgba(12.777, 0, 255, 1)" offset="100%"/></linearGradient></defs><path style="transform:translate(0, 0px); opacity:1" fill="url(#sw-gradient-0)" d="M0,110L34.3,110C68.6,110,137,110,206,121C274.3,132,343,154,411,146.7C480,139,549,103,617,88C685.7,73,754,81,823,99C891.4,117,960,147,1029,132C1097.1,117,1166,59,1234,55C1302.9,51,1371,103,1440,117.3C1508.6,132,1577,110,1646,106.3C1714.3,103,1783,117,1851,106.3C1920,95,1989,59,2057,69.7C2125.7,81,2194,139,2263,135.7C2331.4,132,2400,66,2469,51.3C2537.1,37,2606,73,2674,73.3C2742.9,73,2811,37,2880,51.3C2948.6,66,3017,132,3086,161.3C3154.3,191,3223,183,3291,150.3C3360,117,3429,59,3497,51.3C3565.7,44,3634,88,3703,113.7C3771.4,139,3840,147,3909,139.3C3977.1,132,4046,110,4114,113.7C4182.9,117,4251,147,4320,146.7C4388.6,147,4457,117,4526,106.3C4594.3,95,4663,103,4731,102.7C4800,103,4869,95,4903,91.7L4937.1,88L4937.1,220L4902.9,220C4868.6,220,4800,220,4731,220C4662.9,220,4594,220,4526,220C4457.1,220,4389,220,4320,220C4251.4,220,4183,220,4114,220C4045.7,220,3977,220,3909,220C3840,220,3771,220,3703,220C3634.3,220,3566,220,3497,220C3428.6,220,3360,220,3291,220C3222.9,220,3154,220,3086,220C3017.1,220,2949,220,2880,220C2811.4,220,2743,220,2674,220C2605.7,220,2537,220,2469,220C2400,220,2331,220,2263,220C2194.3,220,2126,220,2057,220C1988.6,220,1920,220,1851,220C1782.9,220,1714,220,1646,220C1577.1,220,1509,220,1440,220C1371.4,220,1303,220,1234,220C1165.7,220,1097,220,1029,220C960,220,891,220,823,220C754.3,220,686,220,617,220C548.6,220,480,220,411,220C342.9,220,274,220,206,220C137.1,220,69,220,34,220L0,220Z"/></svg>