<?xml version="1.0" standalone="no"?>
<svg xmlns:xlink="http://www.w3.org/1999/xlink" id="wave" style="transform:rotate(180deg); transition: 0.3s" viewBox="0 0 1440 340" version="1.1" xmlns="http://www.w3.org/2000/svg"><defs><linearGradient id="sw-gradient-0" x1="0" x2="0" y1="1" y2="0"><stop stop-color="rgba(36.801, 121.956, 255, 0.82)" offset="0%"/><stop stop-color="rgba(12.777, 0, 255, 1)" offset="100%"/></linearGradient></defs><path style="transform:translate(0, 0px); opacity:1" fill="url(#sw-gradient-0)" d="M0,170L48,170C96,170,192,170,288,187C384,204,480,238,576,226.7C672,215,768,159,864,136C960,113,1056,125,1152,153C1248,181,1344,227,1440,204C1536,181,1632,91,1728,85C1824,79,1920,159,2016,181.3C2112,204,2208,170,2304,164.3C2400,159,2496,181,2592,164.3C2688,147,2784,91,2880,107.7C2976,125,3072,215,3168,209.7C3264,204,3360,102,3456,79.3C3552,57,3648,113,3744,113.3C3840,113,3936,57,4032,79.3C4128,102,4224,204,4320,249.3C4416,295,4512,283,4608,232.3C4704,181,4800,91,4896,79.3C4992,68,5088,136,5184,175.7C5280,215,5376,227,5472,215.3C5568,204,5664,170,5760,175.7C5856,181,5952,227,6048,226.7C6144,227,6240,181,6336,164.3C6432,147,6528,159,6624,158.7C6720,159,6816,147,6864,141.7L6912,136L6912,340L6864,340C6816,340,6720,340,6624,340C6528,340,6432,340,6336,340C6240,340,6144,340,6048,340C5952,340,5856,340,5760,340C5664,340,5568,340,5472,340C5376,340,5280,340,5184,340C5088,340,4992,340,4896,340C4800,340,4704,340,4608,340C4512,340,4416,340,4320,340C4224,340,4128,340,4032,340C3936,340,3840,340,3744,340C3648,340,3552,340,3456,340C3360,340,3264,340,3168,340C3072,340,2976,340,2880,340C2784,340,2688,340,2592,340C2496,340,2400,340,2304,340C2208,340,2112,340,2016,340C1920,340,1824,340,1728,340C1632,340,1536,340,1440,340C1344,340,1248,340,1152,340C1056,340,960,340,864,340C768,340,672,340,576,340C480,340,384,340,288,340C192,340,96,340,48,340L0,340Z"/></svg>