<?xml version="1.0" standalone="no"?>
<svg xmlns:xlink="http://www.w3.org/1999/xlink" id="wave" style="transform:rotate(180deg); transition: 0.3s" viewBox="0 0 1440 490" version="1.1" xmlns="http://www.w3.org/2000/svg"><defs><linearGradient id="sw-gradient-0" x1="0" x2="0" y1="1" y2="0"><stop stop-color="rgba(4.599, 0, 39.026, 1)" offset="0%"/><stop stop-color="rgba(0, 73.603, 255, 1)" offset="100%"/></linearGradient></defs><path style="transform:translate(0, 0px); opacity:1" fill="url(#sw-gradient-0)" d="M0,245L48,245C96,245,192,245,288,269.5C384,294,480,343,576,326.7C672,310,768,229,864,196C960,163,1056,180,1152,220.5C1248,261,1344,327,1440,294C1536,261,1632,131,1728,122.5C1824,114,1920,229,2016,261.3C2112,294,2208,245,2304,236.8C2400,229,2496,261,2592,236.8C2688,212,2784,131,2880,155.2C2976,180,3072,310,3168,302.2C3264,294,3360,147,3456,114.3C3552,82,3648,163,3744,163.3C3840,163,3936,82,4032,114.3C4128,147,4224,294,4320,359.3C4416,425,4512,408,4608,334.8C4704,261,4800,131,4896,114.3C4992,98,5088,196,5184,253.2C5280,310,5376,327,5472,310.3C5568,294,5664,245,5760,253.2C5856,261,5952,327,6048,326.7C6144,327,6240,261,6336,236.8C6432,212,6528,229,6624,228.7C6720,229,6816,212,6864,204.2L6912,196L6912,490L6864,490C6816,490,6720,490,6624,490C6528,490,6432,490,6336,490C6240,490,6144,490,6048,490C5952,490,5856,490,5760,490C5664,490,5568,490,5472,490C5376,490,5280,490,5184,490C5088,490,4992,490,4896,490C4800,490,4704,490,4608,490C4512,490,4416,490,4320,490C4224,490,4128,490,4032,490C3936,490,3840,490,3744,490C3648,490,3552,490,3456,490C3360,490,3264,490,3168,490C3072,490,2976,490,2880,490C2784,490,2688,490,2592,490C2496,490,2400,490,2304,490C2208,490,2112,490,2016,490C1920,490,1824,490,1728,490C1632,490,1536,490,1440,490C1344,490,1248,490,1152,490C1056,490,960,490,864,490C768,490,672,490,576,490C480,490,384,490,288,490C192,490,96,490,48,490L0,490Z"/></svg>