<?xml version="1.0" standalone="no"?>
<svg xmlns:xlink="http://www.w3.org/1999/xlink" id="wave" style="transform:rotate(0deg); transition: 0.3s" viewBox="0 0 1440 490" version="1.1" xmlns="http://www.w3.org/2000/svg"><defs><linearGradient id="sw-gradient-0" x1="0" x2="0" y1="1" y2="0"><stop stop-color="rgba(243, 106, 62, 1)" offset="0%"/><stop stop-color="rgba(255, 179, 11, 1)" offset="100%"/></linearGradient></defs><path style="transform:translate(0, 0px); opacity:1" fill="url(#sw-gradient-0)" d="M0,196L60,171.5C120,147,240,98,360,122.5C480,147,600,245,720,310.3C840,376,960,408,1080,400.2C1200,392,1320,343,1440,318.5C1560,294,1680,294,1800,261.3C1920,229,2040,163,2160,155.2C2280,147,2400,196,2520,236.8C2640,278,2760,310,2880,269.5C3000,229,3120,114,3240,122.5C3360,131,3480,261,3600,318.5C3720,376,3840,359,3960,343C4080,327,4200,310,4320,261.3C4440,212,4560,131,4680,122.5C4800,114,4920,180,5040,220.5C5160,261,5280,278,5400,285.8C5520,294,5640,294,5760,277.7C5880,261,6000,229,6120,212.3C6240,196,6360,196,6480,171.5C6600,147,6720,98,6840,138.8C6960,180,7080,310,7200,351.2C7320,392,7440,343,7560,310.3C7680,278,7800,261,7920,220.5C8040,180,8160,114,8280,138.8C8400,163,8520,278,8580,334.8L8640,392L8640,490L8580,490C8520,490,8400,490,8280,490C8160,490,8040,490,7920,490C7800,490,7680,490,7560,490C7440,490,7320,490,7200,490C7080,490,6960,490,6840,490C6720,490,6600,490,6480,490C6360,490,6240,490,6120,490C6000,490,5880,490,5760,490C5640,490,5520,490,5400,490C5280,490,5160,490,5040,490C4920,490,4800,490,4680,490C4560,490,4440,490,4320,490C4200,490,4080,490,3960,490C3840,490,3720,490,3600,490C3480,490,3360,490,3240,490C3120,490,3000,490,2880,490C2760,490,2640,490,2520,490C2400,490,2280,490,2160,490C2040,490,1920,490,1800,490C1680,490,1560,490,1440,490C1320,490,1200,490,1080,490C960,490,840,490,720,490C600,490,480,490,360,490C240,490,120,490,60,490L0,490Z"/><defs><linearGradient id="sw-gradient-1" x1="0" x2="0" y1="1" y2="0"><stop stop-color="rgba(243, 106, 62, 1)" offset="0%"/><stop stop-color="rgba(255, 179, 11, 1)" offset="100%"/></linearGradient></defs><path style="transform:translate(0, 50px); opacity:0.9" fill="url(#sw-gradient-1)" d="M0,0L60,8.2C120,16,240,33,360,57.2C480,82,600,114,720,147C840,180,960,212,1080,228.7C1200,245,1320,245,1440,253.2C1560,261,1680,278,1800,236.8C1920,196,2040,98,2160,106.2C2280,114,2400,229,2520,236.8C2640,245,2760,147,2880,114.3C3000,82,3120,114,3240,155.2C3360,196,3480,245,3600,285.8C3720,327,3840,359,3960,383.8C4080,408,4200,425,4320,424.7C4440,425,4560,408,4680,351.2C4800,294,4920,196,5040,155.2C5160,114,5280,131,5400,130.7C5520,131,5640,114,5760,106.2C5880,98,6000,98,6120,114.3C6240,131,6360,163,6480,187.8C6600,212,6720,229,6840,236.8C6960,245,7080,245,7200,277.7C7320,310,7440,376,7560,383.8C7680,392,7800,343,7920,294C8040,245,8160,196,8280,187.8C8400,180,8520,212,8580,228.7L8640,245L8640,490L8580,490C8520,490,8400,490,8280,490C8160,490,8040,490,7920,490C7800,490,7680,490,7560,490C7440,490,7320,490,7200,490C7080,490,6960,490,6840,490C6720,490,6600,490,6480,490C6360,490,6240,490,6120,490C6000,490,5880,490,5760,490C5640,490,5520,490,5400,490C5280,490,5160,490,5040,490C4920,490,4800,490,4680,490C4560,490,4440,490,4320,490C4200,490,4080,490,3960,490C3840,490,3720,490,3600,490C3480,490,3360,490,3240,490C3120,490,3000,490,2880,490C2760,490,2640,490,2520,490C2400,490,2280,490,2160,490C2040,490,1920,490,1800,490C1680,490,1560,490,1440,490C1320,490,1200,490,1080,490C960,490,840,490,720,490C600,490,480,490,360,490C240,490,120,490,60,490L0,490Z"/><defs><linearGradient id="sw-gradient-2" x1="0" x2="0" y1="1" y2="0"><stop stop-color="rgba(243, 106, 62, 1)" offset="0%"/><stop stop-color="rgba(255, 179, 11, 1)" offset="100%"/></linearGradient></defs><path style="transform:translate(0, 100px); opacity:0.8" fill="url(#sw-gradient-2)" d="M0,49L60,40.8C120,33,240,16,360,81.7C480,147,600,294,720,310.3C840,327,960,212,1080,163.3C1200,114,1320,131,1440,130.7C1560,131,1680,114,1800,98C1920,82,2040,65,2160,81.7C2280,98,2400,147,2520,204.2C2640,261,2760,327,2880,318.5C3000,310,3120,229,3240,179.7C3360,131,3480,114,3600,138.8C3720,163,3840,229,3960,212.3C4080,196,4200,98,4320,65.3C4440,33,4560,65,4680,130.7C4800,196,4920,294,5040,302.2C5160,310,5280,229,5400,187.8C5520,147,5640,147,5760,122.5C5880,98,6000,49,6120,24.5C6240,0,6360,0,6480,57.2C6600,114,6720,229,6840,269.5C6960,310,7080,278,7200,245C7320,212,7440,180,7560,204.2C7680,229,7800,310,7920,302.2C8040,294,8160,196,8280,179.7C8400,163,8520,229,8580,261.3L8640,294L8640,490L8580,490C8520,490,8400,490,8280,490C8160,490,8040,490,7920,490C7800,490,7680,490,7560,490C7440,490,7320,490,7200,490C7080,490,6960,490,6840,490C6720,490,6600,490,6480,490C6360,490,6240,490,6120,490C6000,490,5880,490,5760,490C5640,490,5520,490,5400,490C5280,490,5160,490,5040,490C4920,490,4800,490,4680,490C4560,490,4440,490,4320,490C4200,490,4080,490,3960,490C3840,490,3720,490,3600,490C3480,490,3360,490,3240,490C3120,490,3000,490,2880,490C2760,490,2640,490,2520,490C2400,490,2280,490,2160,490C2040,490,1920,490,1800,490C1680,490,1560,490,1440,490C1320,490,1200,490,1080,490C960,490,840,490,720,490C600,490,480,490,360,490C240,490,120,490,60,490L0,490Z"/></svg>